<?xml version="1.0" encoding="UTF-8" standalone="no"?>
<!DOCTYPE svg PUBLIC "-//W3C//DTD SVG 1.0//EN" "http://www.w3.org/TR/2001/REC-SVG-20010904/DTD/svg10.dtd">
<!-- Created with Inkscape (http://www.inkscape.org/) -->
<svg
   xmlns:svg="http://www.w3.org/2000/svg"
   xmlns="http://www.w3.org/2000/svg"
   xmlns:inkscape="http://www.inkscape.org/namespaces/inkscape"
   version="1.0"
   width="800"
   height="280"
   id="svg2">
  <defs
     id="defs4">
    <inkscape:path-effect
       effect="bend_path"
       id="path-effect3534" />
  </defs>
  <g
     id="layer1">
    <path
       d="M 646.09197,92.907218 L 646.09197,121.43804 C 656.95712,121.48491 665.4887,129.39147 665.4887,139.4927 C 665.4887,149.59392 656.95708,157.50052 646.09197,157.54736 L 646.09197,186.07825 C 673.58494,186.0288 698.01405,165.03086 698.01409,139.4927 C 698.01409,113.95453 673.58494,92.956672 646.09197,92.907218 z M 646.09197,7.9794974 L 646.09197,88.52349 C 678.31324,88.655743 703.61428,110.97638 703.61428,139.49274 C 703.61424,168.00897 678.31315,190.32969 646.09197,190.46198 L 646.09197,271.00597 C 727.62428,270.86631 794.73869,211.58819 794.73877,139.49274 C 794.73877,67.397163 727.62428,8.1190801 646.09197,7.9794974 z M 3.21428,7.9794974 L 187.31485,271.00597 C 187.31485,271.00597 293.74797,273.88256 293.74797,271.00597 C 293.74797,268.12942 293.74797,7.9794974 293.74797,7.9794974 L 206.73171,7.9794974 C 206.73171,7.9794974 206.73171,152.6351 206.73171,149.03937 C 206.73171,145.44365 104.61341,7.9794974 104.61341,7.9794974 L 3.21428,7.9794974 z M 318.19883,271.00597 L 318.91797,7.9794974 L 408.81083,7.9794974 C 450.00376,8.3836671 461.90808,24.504024 472.09537,47.640246 C 483.08998,23.967722 499.17977,8.0026538 537.53736,7.9794974 L 623.83453,7.9794974 L 623.83453,271.00597 L 540.41395,271.00597 L 540.41395,110.92479 C 539.98453,96.760281 513.83205,96.136508 513.80568,110.92479 L 512.36736,271.00597 L 428.22769,271.00597 L 427.50855,110.92479 C 427.3647,97.375516 402.39981,97.811098 402.33855,110.92479 L 403.77683,271.00597 L 318.19883,271.00597 z"
       id="path3752"
       style="fill:#000000;fill-opacity:1;fill-rule:nonzero;stroke:none;stroke-width:20;stroke-linecap:butt;stroke-linejoin:miter;stroke-miterlimit:4;stroke-opacity:1" />
  </g>
</svg>
